<svg xmlns="http://www.w3.org/2000/svg" viewBox="0 0 1920 480" width="1920" height="480" role="img" aria-label="tx_garage v2.0 banner">
  <defs>
    <!-- ─── GTA 6 trailer sky gradient ─────────────────────────────────────
         Humid teal-blue upper → lavender mid → peach-pink horizon → amber sun.
         Calibrated against trailer 1 final shots (sunset over Vice City beach). -->
    <linearGradient id="sky" x1="0%" y1="0%" x2="0%" y2="100%">
      <stop offset="0%"   stop-color="#1a3a5c"/>  <!-- humid teal-blue zenith -->
      <stop offset="22%"  stop-color="#2c4570"/>  <!-- transition -->
      <stop offset="42%"  stop-color="#5a4d80"/>  <!-- lavender mid -->
      <stop offset="62%"  stop-color="#a05d7a"/>  <!-- dusty rose -->
      <stop offset="78%"  stop-color="#e8866b"/>  <!-- peach -->
      <stop offset="92%"  stop-color="#f4b863"/>  <!-- warm amber -->
      <stop offset="100%" stop-color="#f9d590"/>  <!-- horizon glow -->
    </linearGradient>

    <!-- ─── Volumetric atmospheric haze ─── -->
    <linearGradient id="haze" x1="0%" y1="0%" x2="0%" y2="100%">
      <stop offset="0%"   stop-color="#fff" stop-opacity="0"/>
      <stop offset="55%"  stop-color="#fff" stop-opacity="0"/>
      <stop offset="80%"  stop-color="#ffd9a8" stop-opacity="0.18"/>
      <stop offset="100%" stop-color="#ffe4be" stop-opacity="0.32"/>
    </linearGradient>

    <!-- ─── Sun (soft realistic glow, not graphic disc) ─── -->
    <radialGradient id="sun" cx="50%" cy="50%" r="50%">
      <stop offset="0%"   stop-color="#fff5d8"/>
      <stop offset="25%"  stop-color="#ffe69a" stop-opacity="0.92"/>
      <stop offset="55%"  stop-color="#f4a872" stop-opacity="0.55"/>
      <stop offset="100%" stop-color="#e8866b" stop-opacity="0"/>
    </radialGradient>

    <!-- ─── Subtle volumetric god-rays through haze ─── -->
    <radialGradient id="godRay" cx="50%" cy="100%" r="80%">
      <stop offset="0%"   stop-color="#ffe5b3" stop-opacity="0.32"/>
      <stop offset="50%"  stop-color="#ffd9a8" stop-opacity="0.10"/>
      <stop offset="100%" stop-color="#ffd9a8" stop-opacity="0"/>
    </radialGradient>

    <!-- ─── Ocean reflection ─── -->
    <linearGradient id="ocean" x1="0%" y1="0%" x2="0%" y2="100%">
      <stop offset="0%"   stop-color="#3d6b7a" stop-opacity="0.85"/>
      <stop offset="35%"  stop-color="#2c4a5a" stop-opacity="0.92"/>
      <stop offset="100%" stop-color="#1a2c3a" stop-opacity="1"/>
    </linearGradient>

    <!-- ─── Naturalistic palm gradient (deep forest green to brown) ─── -->
    <linearGradient id="palmFrond" x1="0%" y1="0%" x2="0%" y2="100%">
      <stop offset="0%"   stop-color="#1f3525"/>
      <stop offset="60%"  stop-color="#16241a"/>
      <stop offset="100%" stop-color="#0d1610"/>
    </linearGradient>
    <linearGradient id="palmTrunk" x1="0%" y1="0%" x2="0%" y2="100%">
      <stop offset="0%"   stop-color="#2a1f12"/>
      <stop offset="100%" stop-color="#0f0a05"/>
    </linearGradient>

    <!-- ─── Soft cloud layer ─── -->
    <filter id="softBlur" x="-10%" y="-10%" width="120%" height="120%">
      <feGaussianBlur stdDeviation="3"/>
    </filter>

    <!-- ─── Modern subtle text glow (not retro neon) ─── -->
    <filter id="softGlow" x="-10%" y="-30%" width="120%" height="160%">
      <feGaussianBlur stdDeviation="6" in="SourceGraphic" result="b"/>
      <feColorMatrix in="b" values="1 0 0 0 0
                                     0 1 0 0 0
                                     0 0 1 0 0
                                     0 0 0 0.4 0" result="b2"/>
      <feMerge>
        <feMergeNode in="b2"/>
        <feMergeNode in="SourceGraphic"/>
      </feMerge>
    </filter>
  </defs>

  <!-- ─── Sky base ─── -->
  <rect width="1920" height="480" fill="url(#sky)"/>

  <!-- ─── Volumetric god-rays (centered on sun, fading outward) ─── -->
  <ellipse cx="960" cy="360" rx="900" ry="280" fill="url(#godRay)"/>

  <!-- ─── Atmospheric haze near horizon ─── -->
  <rect width="1920" height="480" fill="url(#haze)"/>

  <!-- ─── Distant cloud streaks (soft, blurred, naturalistic) ─── -->
  <g opacity="0.25" filter="url(#softBlur)">
    <ellipse cx="380"  cy="180" rx="180" ry="14" fill="#e8b890"/>
    <ellipse cx="620"  cy="160" rx="240" ry="10" fill="#d9a888"/>
    <ellipse cx="1280" cy="170" rx="280" ry="12" fill="#e0a098"/>
    <ellipse cx="1620" cy="195" rx="200" ry="14" fill="#d8a890"/>
    <ellipse cx="900"  cy="125" rx="320" ry="8"  fill="#c8b0a8"/>
  </g>

  <!-- ─── Sun disc (soft, glowing, behind haze) ─── -->
  <circle cx="960" cy="320" r="190" fill="url(#sun)"/>
  <circle cx="960" cy="320" r="78"  fill="#fff5d8" opacity="0.85"/>

  <!-- ─── Horizon line (very subtle) ─── -->
  <rect x="0" y="358" width="1920" height="1" fill="#f4b863" opacity="0.4"/>

  <!-- ─── Ocean ─── -->
  <rect x="0" y="359" width="1920" height="121" fill="url(#ocean)"/>

  <!-- Reflected sun shimmer on water (broken light, not solid bands) -->
  <g fill="#f4b863" opacity="0.45">
    <rect x="945"  y="368" width="30" height="1.5"/>
    <rect x="938"  y="376" width="44" height="1"/>
    <rect x="925"  y="384" width="70" height="1.5"/>
    <rect x="900"  y="394" width="120" height="1"/>
    <rect x="876"  y="406" width="168" height="1.5"/>
    <rect x="848"  y="420" width="224" height="1"/>
    <rect x="800"  y="438" width="320" height="2"/>
    <rect x="744"  y="458" width="432" height="1.5" opacity="0.6"/>
  </g>

  <!-- ─── Distant skyline silhouette (atmospheric haze tints it lavender) ─── -->
  <g fill="#3a3050" opacity="0.7">
    <polygon points="500,360 500,335 528,335 528,348 558,348 558,328 588,328 588,355 620,355 620,340 654,340 654,358 684,358 684,344 720,344 720,358 1180,358 1180,340 1210,340 1210,352 1240,352 1240,330 1278,330 1278,355 1308,355 1308,348 1340,348 1340,358 1378,358 1378,338 1410,338 1410,358 1440,358 1440,360"/>
  </g>
  <!-- Warm window lights -->
  <g fill="#f9d590" opacity="0.55">
    <rect x="514" y="342" width="2" height="3"/>
    <rect x="540" y="338" width="2" height="3"/>
    <rect x="572" y="335" width="2" height="3"/>
    <rect x="600" y="346" width="2" height="3"/>
    <rect x="666" y="350" width="2" height="3"/>
    <rect x="1190" y="346" width="2" height="3"/>
    <rect x="1252" y="340" width="2" height="3"/>
    <rect x="1322" y="352" width="2" height="3"/>
    <rect x="1390" y="345" width="2" height="3"/>
  </g>

  <!-- ─── Naturalistic palm (left) ─── -->
  <g transform="translate(180 480)">
    <!-- trunk: tapered, two-tone -->
    <path d="M-7,-265 C-4,-180 -9,-100 -5,0 L5,0 C7,-100 4,-180 7,-265 Z" fill="url(#palmTrunk)"/>
    <!-- trunk ring detail -->
    <g fill="#0a0805" opacity="0.6">
      <ellipse cx="0" cy="-220" rx="6" ry="1"/>
      <ellipse cx="0" cy="-180" rx="6" ry="1"/>
      <ellipse cx="0" cy="-140" rx="5" ry="1"/>
      <ellipse cx="0" cy="-100" rx="5" ry="1"/>
      <ellipse cx="0" cy="-60"  rx="4" ry="1"/>
    </g>
    <!-- fronds: layered with naturalistic curves and frond-leaflet ridges -->
    <g fill="url(#palmFrond)">
      <path d="M0,-265 C-90,-305 -170,-285 -210,-244 C-176,-272 -110,-282 -10,-260 Z"/>
      <path d="M0,-265 C-50,-335 -16,-388  46,-368 C  -2,-358 -36,-322 -8,-264 Z"/>
      <path d="M0,-265 C  60,-325 138,-318 188,-286 C 130,-292  56,-298   8,-262 Z"/>
      <path d="M0,-265 C 105,-260 180,-225 212,-184 C 152,-218  78,-246   8,-262 Z"/>
      <path d="M0,-265 C -22,-220  10,-176  62,-156 C   8,-180 -22,-220   -4,-262 Z"/>
      <path d="M0,-265 C  44,-205  92,-178 138,-168 C  84,-200  36,-232   8,-262 Z"/>
    </g>
    <!-- Frond leaflet ridges (lighter green strokes for detail) -->
    <g stroke="#2a4530" stroke-width="0.6" fill="none" opacity="0.55">
      <path d="M-10,-262 Q-90,-294 -180,-258"/>
      <path d="M-10,-262 Q-40,-310 30,-352"/>
      <path d="M5,-262 Q70,-308 160,-282"/>
      <path d="M5,-262 Q100,-262 184,-202"/>
    </g>
  </g>

  <!-- ─── Naturalistic palm (right, mirrored, slightly different proportions) ─── -->
  <g transform="translate(1740 480) scale(-1 1)">
    <path d="M-6,-235 C-3,-160 -8,-90 -3,0 L3,0 C6,-90 3,-160 6,-235 Z" fill="url(#palmTrunk)"/>
    <g fill="#0a0805" opacity="0.6">
      <ellipse cx="0" cy="-200" rx="5" ry="1"/>
      <ellipse cx="0" cy="-160" rx="5" ry="1"/>
      <ellipse cx="0" cy="-120" rx="5" ry="1"/>
      <ellipse cx="0" cy="-80"  rx="4" ry="1"/>
    </g>
    <g fill="url(#palmFrond)">
      <path d="M0,-235 C-80,-272 -148,-256 -184,-220 C-128,-246 -70,-252 -10,-232 Z"/>
      <path d="M0,-235 C-44,-296 -16,-345  40,-326 C   -4,-318 -32,-292 -8,-234 Z"/>
      <path d="M0,-235 C  56,-290 122,-282 168,-256 C 112,-260  50,-266   8,-232 Z"/>
      <path d="M0,-235 C  92,-228 158,-198 188,-164 C 138,-196  68,-220   8,-232 Z"/>
      <path d="M0,-235 C -18,-198  10,-160  56,-142 C   8,-164 -18,-198    -2,-232 Z"/>
    </g>
    <g stroke="#2a4530" stroke-width="0.6" fill="none" opacity="0.55">
      <path d="M-8,-232 Q-80,-258 -158,-228"/>
      <path d="M-8,-232 Q-32,-285 32,-318"/>
      <path d="M5,-232 Q70,-275 156,-258"/>
    </g>
  </g>

  <!-- ─── Wordmark ─── -->
  <g filter="url(#softGlow)">
    <text x="960" y="200"
          font-family="Helvetica,Arial,sans-serif"
          font-weight="900"
          font-size="180"
          fill="#fff8ed"
          text-anchor="middle"
          letter-spacing="-4">tx_garage</text>
  </g>
  <text x="960" y="200"
        font-family="Helvetica,Arial,sans-serif"
        font-weight="900"
        font-size="180"
        fill="#fff8ed"
        text-anchor="middle"
        letter-spacing="-4">tx_garage</text>

  <!-- ─── v2.0 · QBOX pill (warm tone, not cyan) ─── -->
  <g transform="translate(960 240)">
    <rect x="-95" y="-22" width="190" height="40" rx="20" fill="#1a1a28" opacity="0.55"/>
    <rect x="-95" y="-22" width="190" height="40" rx="20" fill="none" stroke="#fff8ed" stroke-width="1" opacity="0.55"/>
    <text x="0" y="6"
          font-family="Helvetica,Arial,sans-serif"
          font-weight="700"
          font-size="20"
          fill="#fff8ed"
          text-anchor="middle"
          letter-spacing="3">v2.0 · QBOX</text>
  </g>

  <!-- ─── Tagline ─── -->
  <text x="960" y="288"
        font-family="Helvetica,Arial,sans-serif"
        font-weight="500"
        font-size="20"
        fill="#fff8ed"
        opacity="0.9"
        text-anchor="middle"
        letter-spacing="6">VALET · LIVE AUCTIONS · SUB-OWNERS · BOSS MENU</text>
</svg>
